<svg width="99" height="99" viewBox="0 0 99 99" fill="none" xmlns="http://www.w3.org/2000/svg">
<path d="M90.2713 0H8.72868C3.90798 0 0 3.90798 0 8.72868V90.2713C0 95.092 3.90798 99 8.72868 99H90.2713C95.092 99 99 95.092 99 90.2713V8.72868C99 3.90798 95.092 0 90.2713 0ZM62.6669 52.7684L59.4467 55.9887C58.8425 56.5929 57.8655 56.5929 57.2613 55.9887L54.0411 52.7684C53.4369 52.1642 53.4369 51.1872 54.0411 50.583L57.2613 47.3628C57.8655 46.7586 58.8425 46.7586 59.4467 47.3628L62.6669 50.583C63.2711 51.1872 63.2711 52.1642 62.6669 52.7684ZM62.6669 64.5716L59.4467 67.7919C58.8425 68.3961 57.8655 68.3961 57.2613 67.7919L54.0411 64.5716C53.4369 63.9674 53.4369 62.9905 54.0411 62.3863L57.2613 59.166C57.8655 58.5618 58.8425 58.5618 59.4467 59.166L62.6669 62.3863C63.2711 62.9905 63.2711 63.9674 62.6669 64.5716ZM62.1334 81.9819C59.3332 82.7746 56.6121 83.171 53.9704 83.171C51.3286 83.171 48.914 82.7596 46.6665 81.9347C44.419 81.112 42.51 79.8757 40.9352 78.226C39.2876 76.6534 38.0128 74.6308 37.1151 72.1584C36.1402 69.6859 35.6539 66.8042 35.6539 63.5068V18.0787C35.6539 17.4809 35.8788 16.956 36.3288 16.5061C36.7787 16.0561 37.3015 15.8312 37.9014 15.8312H49.1368C49.7346 15.8312 50.2595 16.0561 50.7095 16.5061C51.1594 16.956 51.3844 17.4809 51.3844 18.0787V31.5916H60.3744C60.9722 31.5916 61.4971 31.8166 61.947 32.2665C62.397 32.7165 62.6219 33.2414 62.6219 33.8392V42.8292C62.6219 43.4291 62.397 43.9519 61.947 44.4018C61.4971 44.8518 60.9722 45.0767 60.3744 45.0767H51.3844V63.5047C51.3844 65.6772 51.9821 67.3634 53.1819 68.561C54.3046 69.8358 55.9158 70.4722 58.0133 70.4722H59.1489C59.9031 70.47 60.5801 70.9328 60.7965 71.657L63.269 79.9015C63.5347 80.7906 63.0226 81.729 62.1292 81.9819H62.1334Z" fill="url(#paint0_linear_4548_9872)"/>
<defs>
<linearGradient id="paint0_linear_4548_9872" x1="2.55604" y1="96.444" x2="96.444" y2="2.55604" gradientUnits="userSpaceOnUse">
<stop stop-color="#016092"/>
<stop offset="1" stop-color="#3289C9"/>
</linearGradient>
</defs>
</svg>
