<svg width="26" height="24" viewBox="0 0 26 24" fill="none" xmlns="http://www.w3.org/2000/svg">
<path fill-rule="evenodd" clip-rule="evenodd" d="M10.7808 2.05386C11.4793 -0.0957564 14.5204 -0.0957494 15.219 2.05386L16.991 7.50675L22.7246 7.50697C24.9848 7.50706 25.9246 10.3993 24.096 11.728L19.4576 15.0982L21.2292 20.5513C21.9275 22.7009 19.4672 24.4885 17.6386 23.16L12.9999 19.7901L8.36119 23.16C6.53255 24.4885 4.07223 22.7009 4.77061 20.5513L6.54217 15.0982L1.90373 11.728C0.0751909 10.3993 1.01496 7.50706 3.27522 7.50697L9.0088 7.50675L10.7808 2.05386ZM12.9999 2.77498L11.2279 8.22788C10.9155 9.18919 10.0197 9.84005 9.00889 9.84009L3.27531 9.8403L7.91374 13.2106C8.73147 13.8048 9.07365 14.8579 8.76133 15.8192L6.98976 21.2722L11.6285 17.9023C12.4462 17.3082 13.5535 17.3082 14.3713 17.9023L19.01 21.2722L17.2384 15.8192C16.9261 14.8579 17.2683 13.8048 18.086 13.2106L22.7245 9.8403L16.9909 9.84009C15.9801 9.84005 15.0843 9.18919 14.7719 8.22788L12.9999 2.77498Z" fill="white"/>
</svg>
