<svg width="20" height="18" viewBox="0 0 20 18" fill="none" xmlns="http://www.w3.org/2000/svg">
<path fill-rule="evenodd" clip-rule="evenodd" d="M7.70711 0.292893C8.09763 0.683417 8.09763 1.31658 7.70711 1.70711L3.41421 6H11C15.9706 6 20 10.0294 20 15V17C20 17.5523 19.5523 18 19 18C18.4477 18 18 17.5523 18 17V15C18 11.134 14.866 8 11 8H3.41421L7.70711 12.2929C8.09763 12.6834 8.09763 13.3166 7.70711 13.7071C7.31658 14.0976 6.68342 14.0976 6.29289 13.7071L0.292893 7.70711C-0.0976311 7.31658 -0.0976311 6.68342 0.292893 6.29289L6.29289 0.292893C6.68342 -0.0976311 7.31658 -0.0976311 7.70711 0.292893Z" fill="#016092"/>
</svg>
