<svg width="14" height="13" viewBox="0 0 14 13" fill="none" xmlns="http://www.w3.org/2000/svg">
<path fill-rule="evenodd" clip-rule="evenodd" d="M5.26803 1.33337C6.03783 4.04716e-05 7.96233 4.0859e-05 8.73213 1.33337L13.3509 9.33337C14.1207 10.6667 13.1585 12.3334 11.6189 12.3334H2.38128C0.841679 12.3334 -0.120571 10.6667 0.649229 9.33337L5.26803 1.33337ZM7.57743 2.00004C7.32083 1.5556 6.67933 1.5556 6.42273 2.00004L1.80393 10C1.54733 10.4445 1.86808 11 2.38128 11H11.6189C12.1321 11 12.4528 10.4445 12.1962 10L7.57743 2.00004ZM7.00008 4.33337C7.36827 4.33337 7.66675 4.63185 7.66675 5.00004V6.33337C7.66675 6.70156 7.36827 7.00004 7.00008 7.00004C6.63189 7.00004 6.33341 6.70156 6.33341 6.33337V5.00004C6.33341 4.63185 6.63189 4.33337 7.00008 4.33337ZM6.33341 9.00004C6.33341 8.63185 6.63189 8.33337 7.00008 8.33337H7.00675C7.37494 8.33337 7.67341 8.63185 7.67341 9.00004C7.67341 9.36823 7.37494 9.66671 7.00675 9.66671H7.00008C6.63189 9.66671 6.33341 9.36823 6.33341 9.00004Z" fill="#545E62"/>
</svg>
