<svg width="14" height="12" viewBox="0 0 14 12" fill="none" xmlns="http://www.w3.org/2000/svg">
<path fill-rule="evenodd" clip-rule="evenodd" d="M7.00005 1.33333C3.97854 1.33333 1.66672 3.49432 1.66672 6C1.66672 6.90118 1.95871 7.74599 2.47266 8.46604C2.6016 8.64668 2.63219 8.87963 2.55426 9.08743L2.0454 10.4444L4.03242 10.047C4.17379 10.0187 4.32052 10.037 4.4506 10.0992C5.20548 10.4599 6.07327 10.6667 7.00005 10.6667C10.0216 10.6667 12.3334 8.50568 12.3334 6C12.3334 3.49432 10.0216 1.33333 7.00005 1.33333ZM0.333384 6C0.333384 2.61464 3.39414 0 7.00005 0C10.606 0 13.6667 2.61464 13.6667 6C13.6667 9.38536 10.606 12 7.00005 12C5.95654 12 4.96576 11.7841 4.08219 11.3968L1.1308 11.9871C0.893436 12.0345 0.648994 11.9496 0.492185 11.7652C0.335375 11.5808 0.290839 11.3259 0.375831 11.0993L1.18587 8.93916C0.645239 8.07389 0.333384 7.07102 0.333384 6ZM3.66672 6C3.66672 5.63181 3.96519 5.33333 4.33338 5.33333H4.34005C4.70824 5.33333 5.00672 5.63181 5.00672 6C5.00672 6.36819 4.70824 6.66667 4.34005 6.66667H4.33338C3.96519 6.66667 3.66672 6.36819 3.66672 6ZM6.33338 6C6.33338 5.63181 6.63186 5.33333 7.00005 5.33333H7.00672C7.37491 5.33333 7.67338 5.63181 7.67338 6C7.67338 6.36819 7.37491 6.66667 7.00672 6.66667H7.00005C6.63186 6.66667 6.33338 6.36819 6.33338 6ZM9.00005 6C9.00005 5.63181 9.29853 5.33333 9.66672 5.33333H9.67338C10.0416 5.33333 10.3401 5.63181 10.3401 6C10.3401 6.36819 10.0416 6.66667 9.67338 6.66667H9.66672C9.29853 6.66667 9.00005 6.36819 9.00005 6Z" fill="#545E62"/>
</svg>
