<svg width="15" height="14" viewBox="0 0 15 14" fill="none" xmlns="http://www.w3.org/2000/svg">
<path fill-rule="evenodd" clip-rule="evenodd" d="M7.50004 12.3333C4.55452 12.3333 2.16671 9.94548 2.16671 6.99996C2.16671 4.05444 4.55452 1.66663 7.50004 1.66663C10.4456 1.66663 12.8334 4.05444 12.8334 6.99996C12.8334 9.94548 10.4456 12.3333 7.50004 12.3333ZM0.833374 6.99996C0.833374 10.6819 3.81814 13.6666 7.50004 13.6666C11.1819 13.6666 14.1667 10.6819 14.1667 6.99996C14.1667 3.31806 11.1819 0.333292 7.50004 0.333292C3.81814 0.333292 0.833374 3.31806 0.833374 6.99996ZM4.16671 6.99996C4.16671 7.36815 4.46518 7.66663 4.83337 7.66663H4.84004C5.20823 7.66663 5.50671 7.36815 5.50671 6.99996C5.50671 6.63177 5.20823 6.33329 4.84004 6.33329H4.83337C4.46518 6.33329 4.16671 6.63177 4.16671 6.99996ZM6.83337 6.99996C6.83337 7.36815 7.13185 7.66663 7.50004 7.66663H7.50671C7.8749 7.66663 8.17337 7.36815 8.17337 6.99996C8.17337 6.63177 7.8749 6.33329 7.50671 6.33329H7.50004C7.13185 6.33329 6.83337 6.63177 6.83337 6.99996ZM9.50004 6.99996C9.50004 7.36815 9.79852 7.66663 10.1667 7.66663H10.1734C10.5416 7.66663 10.84 7.36815 10.84 6.99996C10.84 6.63177 10.5416 6.33329 10.1734 6.33329H10.1667C9.79852 6.33329 9.50004 6.63177 9.50004 6.99996Z" fill="#016092"/>
</svg>
