<svg width="110" height="88" viewBox="0 0 110 88" fill="none" xmlns="http://www.w3.org/2000/svg">
<path fill-rule="evenodd" clip-rule="evenodd" d="M0.833584 16.9165C0.833584 7.94188 8.10896 0.666504 17.0836 0.666504H92.9169C101.892 0.666504 109.167 7.94188 109.167 16.9165V22.2491C109.168 22.3019 109.168 22.3546 109.167 22.4073V71.0832C109.167 80.0578 101.892 87.3332 92.9169 87.3332H17.0836C8.10895 87.3332 0.833584 80.0578 0.833584 71.0832V22.4072C0.832817 22.3546 0.832815 22.3019 0.833584 22.2492V16.9165ZM11.6669 32.4543V71.0832C11.6669 74.0747 14.092 76.4998 17.0836 76.4998H92.9169C95.9085 76.4998 98.3336 74.0747 98.3336 71.0832V32.4543L64.0141 55.3339C58.5558 58.9729 51.4447 58.9729 45.9864 55.3339L11.6669 32.4543ZM98.3336 19.4343L58.0049 46.3201C56.1854 47.533 53.8151 47.533 51.9956 46.3201L11.6669 19.4343V16.9165C11.6669 13.925 14.092 11.4998 17.0836 11.4998H92.9169C95.9085 11.4998 98.3336 13.925 98.3336 16.9165V19.4343Z" fill="#016092"/>
</svg>
