<svg width="24" height="24" viewBox="0 0 24 24" fill="none" xmlns="http://www.w3.org/2000/svg">
<path fill-rule="evenodd" clip-rule="evenodd" d="M11.1737 0.675083C11.6294 0.219471 12.368 0.219471 12.8237 0.675083L23.3237 11.1751C23.7793 11.6307 23.7793 12.3694 23.3237 12.825C22.868 13.2806 22.1294 13.2806 21.6737 12.825L21.332 12.4833V21.3334C21.332 22.622 20.2874 23.6667 18.9987 23.6667H4.9987C3.71003 23.6667 2.66536 22.622 2.66536 21.3334V12.4833L2.32366 12.825C1.86804 13.2806 1.12935 13.2806 0.67374 12.825C0.218128 12.3694 0.218128 11.6307 0.67374 11.1751L11.1737 0.675083ZM4.9987 10.15V21.3334H8.4987V16.6667C8.4987 15.378 9.54337 14.3334 10.832 14.3334H13.1654C14.454 14.3334 15.4987 15.378 15.4987 16.6667V21.3334H18.9987V10.15L11.9987 3.14996L4.9987 10.15ZM13.1654 21.3334V16.6667H10.832V21.3334H13.1654Z" fill="white"/>
</svg>
