<svg width="26" height="26" viewBox="0 0 26 26" fill="none" xmlns="http://www.w3.org/2000/svg">
<path fill-rule="evenodd" clip-rule="evenodd" d="M10.6224 2.27198C11.3709 -0.0311762 14.6292 -0.0311688 15.3776 2.27198L17.2762 8.11437L23.4193 8.1146C25.841 8.11469 26.8479 11.2136 24.8888 12.6371L19.919 16.2481L21.8171 22.0906C22.5654 24.3939 19.9293 26.3091 17.9701 24.8857L13 21.275L8.03 24.8857C6.07074 26.3091 3.43469 24.3939 4.18295 22.0906L6.08106 16.2481L1.1113 12.6371C-0.847853 11.2136 0.159038 8.11469 2.58075 8.1146L8.72387 8.11437L10.6224 2.27198ZM13 3.04462L11.1015 8.887C10.7668 9.91698 9.80696 10.6143 8.72396 10.6144L2.58084 10.6146L7.5506 14.2256C8.42673 14.8622 8.79335 15.9906 8.45873 17.0206L6.56062 22.8631L11.5306 19.2524C12.4068 18.6159 13.5932 18.6159 14.4694 19.2524L19.4394 22.8631L17.5413 17.0206C17.2067 15.9906 17.5733 14.8622 18.4495 14.2256L23.4192 10.6146L17.2761 10.6144C16.1931 10.6143 15.2333 9.91698 14.8986 8.887L13 3.04462Z" fill="#E80000"/>
</svg>
