<svg width="16" height="15" viewBox="0 0 16 15" fill="none" xmlns="http://www.w3.org/2000/svg">
<path d="M7.04917 0.927067C7.34853 0.0057561 8.65193 0.00575657 8.95129 0.927067L10.0209 4.21886C10.1547 4.63089 10.5387 4.90985 10.9719 4.90985H14.4331C15.4018 4.90985 15.8046 6.14946 15.0209 6.71886L12.2207 8.75331C11.8702 9.00795 11.7236 9.45932 11.8575 9.87134L12.927 13.1631C13.2264 14.0844 12.1719 14.8506 11.3882 14.2812L8.58801 12.2467C8.23753 11.9921 7.76293 11.9921 7.41244 12.2467L4.61227 14.2812C3.82856 14.8506 2.77408 14.0844 3.07343 13.1631L4.143 9.87134C4.27688 9.45932 4.13022 9.00795 3.77973 8.75331L0.979561 6.71886C0.195848 6.14946 0.598623 4.90985 1.56735 4.90985H5.02855C5.46177 4.90985 5.84573 4.63089 5.9796 4.21886L7.04917 0.927067Z" fill="#E80000"/>
</svg>
