<svg width="20" height="18" viewBox="0 0 20 18" fill="none" xmlns="http://www.w3.org/2000/svg">
<path fill-rule="evenodd" clip-rule="evenodd" d="M4 2C2.89543 2 2 2.89543 2 4V14C2 15.1046 2.89543 16 4 16H11C12.1046 16 13 15.1046 13 14V13C13 12.4477 13.4477 12 14 12C14.5523 12 15 12.4477 15 13V14C15 16.2091 13.2091 18 11 18H4C1.79086 18 0 16.2091 0 14V4C0 1.79086 1.79086 0 4 0H11C13.2091 0 15 1.79086 15 4V5C15 5.55228 14.5523 6 14 6C13.4477 6 13 5.55228 13 5V4C13 2.89543 12.1046 2 11 2H4ZM9.70711 4.29289C10.0976 4.68342 10.0976 5.31658 9.70711 5.70711L7.41421 8L19 8C19.5523 8 20 8.44771 20 9C20 9.55228 19.5523 10 19 10L7.41421 10L9.70711 12.2929C10.0976 12.6834 10.0976 13.3166 9.70711 13.7071C9.31658 14.0976 8.68342 14.0976 8.29289 13.7071L4.29289 9.70711C3.90237 9.31658 3.90237 8.68342 4.29289 8.29289L8.29289 4.29289C8.68342 3.90237 9.31658 3.90237 9.70711 4.29289Z" fill="white"/>
</svg>
