<svg width="24" height="24" viewBox="0 0 24 24" fill="none" xmlns="http://www.w3.org/2000/svg">
<path fill-rule="evenodd" clip-rule="evenodd" d="M8.91036 2.76167C9.69638 -0.476059 14.301 -0.476054 15.087 2.76167C15.222 3.31759 15.8589 3.5814 16.3474 3.28374C19.1926 1.55012 22.4486 4.8061 20.715 7.65131C20.4173 8.13983 20.6812 8.77674 21.2371 8.9117C24.4748 9.69772 24.4748 14.3024 21.2371 15.0884C20.6812 15.2233 20.4173 15.8602 20.715 16.3488C22.4486 19.194 19.1926 22.45 16.3474 20.7163C15.8589 20.4187 15.222 20.6825 15.087 21.2384C14.301 24.4761 9.69638 24.4761 8.91036 21.2384C8.7754 20.6825 8.13849 20.4187 7.64997 20.7163C4.80475 22.45 1.54878 19.194 3.2824 16.3488C3.58006 15.8602 3.31624 15.2233 2.76032 15.0884C-0.477397 14.3024 -0.477402 9.69772 2.76032 8.9117C3.31624 8.77674 3.58006 8.13983 3.2824 7.65131C1.54878 4.80609 4.80475 1.55012 7.64997 3.28374C8.13849 3.5814 8.7754 3.31758 8.91036 2.76167ZM12.8196 3.31214C12.6106 2.45156 11.3868 2.45157 11.1778 3.31214C10.6701 5.40366 8.27383 6.39622 6.43586 5.27632C5.67962 4.81554 4.81419 5.68096 5.27498 6.4372C6.39488 8.27518 5.40232 10.6714 3.31079 11.1792C2.45022 11.3881 2.45022 12.612 3.31079 12.8209C5.40232 13.3287 6.39488 15.7249 5.27498 17.5629C4.8142 18.3191 5.67962 19.1845 6.43586 18.7238C8.27384 17.6039 10.6701 18.5964 11.1778 20.6879C11.3868 21.5485 12.6106 21.5485 12.8196 20.6879C13.3273 18.5964 15.7236 17.6039 17.5615 18.7238C18.3178 19.1845 19.1832 18.3191 18.7224 17.5629C17.6025 15.7249 18.5951 13.3287 20.6866 12.8209C21.5472 12.612 21.5472 11.3881 20.6866 11.1792C18.5951 10.6714 17.6025 8.27518 18.7224 6.4372C19.1832 5.68096 18.3178 4.81554 17.5615 5.27633C15.7236 6.39622 13.3273 5.40367 12.8196 3.31214ZM11.9987 9.66671C10.71 9.66671 9.66536 10.7114 9.66536 12C9.66536 13.2887 10.71 14.3334 11.9987 14.3334C13.2874 14.3334 14.332 13.2887 14.332 12C14.332 10.7114 13.2874 9.66671 11.9987 9.66671ZM7.33203 12C7.33203 9.42271 9.42137 7.33337 11.9987 7.33337C14.576 7.33337 16.6654 9.42271 16.6654 12C16.6654 14.5774 14.576 16.6667 11.9987 16.6667C9.42137 16.6667 7.33203 14.5774 7.33203 12Z" fill="white"/>
</svg>
