<svg width="104" height="104" viewBox="0 0 104 104" fill="none" xmlns="http://www.w3.org/2000/svg">
<path fill-rule="evenodd" clip-rule="evenodd" d="M52 104C80.7188 104 104 80.7188 104 52C104 23.2812 80.7188 0 52 0C23.2812 0 0 23.2812 0 52C0 80.7188 23.2812 104 52 104ZM76.0962 43.5962C78.6346 41.0578 78.6346 36.9422 76.0962 34.4038C73.5578 31.8654 69.4422 31.8654 66.9038 34.4038L45.5 55.8076L37.0962 47.4038C34.5578 44.8654 30.4422 44.8654 27.9038 47.4038C25.3654 49.9422 25.3654 54.0578 27.9038 56.5962L40.9038 69.5962C43.4422 72.1346 47.5578 72.1346 50.0962 69.5962L76.0962 43.5962Z" fill="#016092"/>
</svg>
