<svg width="24" height="24" viewBox="0 0 24 24" fill="none" xmlns="http://www.w3.org/2000/svg">
<path fill-rule="evenodd" clip-rule="evenodd" d="M11.9987 2.66671C6.84404 2.66671 2.66536 6.84538 2.66536 12C2.66536 17.1547 6.84404 21.3334 11.9987 21.3334C17.1534 21.3334 21.332 17.1547 21.332 12C21.332 6.84538 17.1534 2.66671 11.9987 2.66671ZM0.332031 12C0.332031 5.55672 5.55538 0.333374 11.9987 0.333374C18.442 0.333374 23.6654 5.55672 23.6654 12C23.6654 18.4434 18.442 23.6667 11.9987 23.6667C5.55538 23.6667 0.332031 18.4434 0.332031 12ZM11.9987 7.33337C12.643 7.33337 13.1654 7.85571 13.1654 8.50004V10.8334H15.4987C16.143 10.8334 16.6654 11.3557 16.6654 12C16.6654 12.6444 16.143 13.1667 15.4987 13.1667H13.1654V15.5C13.1654 16.1444 12.643 16.6667 11.9987 16.6667C11.3544 16.6667 10.832 16.1444 10.832 15.5V13.1667H8.4987C7.85437 13.1667 7.33203 12.6444 7.33203 12C7.33203 11.3557 7.85437 10.8334 8.4987 10.8334H10.832V8.50004C10.832 7.85571 11.3544 7.33337 11.9987 7.33337Z" fill="white"/>
</svg>
