<svg width="18" height="14" viewBox="0 0 18 14" fill="none" xmlns="http://www.w3.org/2000/svg">
<path fill-rule="evenodd" clip-rule="evenodd" d="M0.666592 2.8335C0.666592 1.45278 1.78588 0.333496 3.16659 0.333496H14.8333C16.214 0.333496 17.3333 1.45278 17.3333 2.8335V3.6539C17.3334 3.66201 17.3334 3.67012 17.3333 3.67823V11.1668C17.3333 12.5475 16.214 13.6668 14.8333 13.6668H3.16659C1.78588 13.6668 0.666592 12.5475 0.666592 11.1668V3.67822C0.666474 3.67012 0.666474 3.66201 0.666592 3.6539V2.8335ZM2.33326 5.22393V11.1668C2.33326 11.6271 2.70636 12.0002 3.16659 12.0002H14.8333C15.2935 12.0002 15.6666 11.6271 15.6666 11.1668V5.22393L10.3867 8.74387C9.54693 9.3037 8.45292 9.3037 7.61318 8.74387L2.33326 5.22393ZM15.6666 3.22084L9.46218 7.35712C9.18226 7.54373 8.81759 7.54373 8.53768 7.35712L2.33326 3.22084V2.8335C2.33326 2.37326 2.70636 2.00016 3.16659 2.00016H14.8333C15.2935 2.00016 15.6666 2.37326 15.6666 2.8335V3.22084Z" fill="#333E43"/>
</svg>
