<svg width="16" height="18" viewBox="0 0 16 18" fill="none" xmlns="http://www.w3.org/2000/svg">
<path fill-rule="evenodd" clip-rule="evenodd" d="M3.83333 4.83317C3.83333 2.53198 5.69881 0.666504 8 0.666504C10.3012 0.666504 12.1667 2.53198 12.1667 4.83317V7.33317H13C14.3807 7.33317 15.5 8.45246 15.5 9.83317V14.8332C15.5 16.2139 14.3807 17.3332 13 17.3332H3C1.61929 17.3332 0.5 16.2139 0.5 14.8332V9.83317C0.5 8.45246 1.61929 7.33317 3 7.33317H3.83333V4.83317ZM5.5 7.33317H10.5V4.83317C10.5 3.45246 9.38071 2.33317 8 2.33317C6.61929 2.33317 5.5 3.45246 5.5 4.83317V7.33317ZM3 8.99984C2.53976 8.99984 2.16667 9.37293 2.16667 9.83317V14.8332C2.16667 15.2934 2.53976 15.6665 3 15.6665H13C13.4602 15.6665 13.8333 15.2934 13.8333 14.8332V9.83317C13.8333 9.37293 13.4602 8.99984 13 8.99984H3ZM8 10.6665C8.46024 10.6665 8.83333 11.0396 8.83333 11.4998V13.1665C8.83333 13.6267 8.46024 13.9998 8 13.9998C7.53976 13.9998 7.16667 13.6267 7.16667 13.1665V11.4998C7.16667 11.0396 7.53976 10.6665 8 10.6665Z" fill="#333E43"/>
</svg>
