<svg width="19" height="20" viewBox="0 0 19 20" fill="none" xmlns="http://www.w3.org/2000/svg">
<path fill-rule="evenodd" clip-rule="evenodd" d="M0.125 3.75C0.125 2.02411 1.52411 0.625 3.25 0.625H11.5833C13.3092 0.625 14.7083 2.02411 14.7083 3.75V4.79167H15.75C17.4759 4.79167 18.875 6.19078 18.875 7.91667V16.25C18.875 17.9759 17.4759 19.375 15.75 19.375H7.41667C5.69078 19.375 4.29167 17.9759 4.29167 16.25V15.2083H3.25C1.52411 15.2083 0.125 13.8092 0.125 12.0833V3.75ZM6.375 16.25C6.375 16.8253 6.84137 17.2917 7.41667 17.2917H15.75C16.3253 17.2917 16.7917 16.8253 16.7917 16.25V7.91667C16.7917 7.34137 16.3253 6.875 15.75 6.875H7.41667C6.84137 6.875 6.375 7.34137 6.375 7.91667V16.25ZM12.625 4.79167H7.41667C5.69078 4.79167 4.29167 6.19078 4.29167 7.91667V13.125H3.25C2.6747 13.125 2.20833 12.6586 2.20833 12.0833V3.75C2.20833 3.1747 2.6747 2.70833 3.25 2.70833H11.5833C12.1586 2.70833 12.625 3.1747 12.625 3.75V4.79167Z" fill="#8A9093"/>
</svg>
