<svg width="17" height="22" viewBox="0 0 17 22" fill="none" xmlns="http://www.w3.org/2000/svg">
<path fill-rule="evenodd" clip-rule="evenodd" d="M3.29175 2.66671C2.71645 2.66671 2.25008 3.13308 2.25008 3.70837V15.1667C2.25008 15.742 1.78371 16.2084 1.20841 16.2084C0.633118 16.2084 0.166748 15.742 0.166748 15.1667V3.70837C0.166748 1.98248 1.56586 0.583374 3.29175 0.583374H9.11028C9.66281 0.583374 10.1927 0.802867 10.5834 1.19357L16.2232 6.83337C16.6139 7.22408 16.8334 7.75398 16.8334 8.30651V18.2917C16.8334 20.0176 15.4343 21.4167 13.7084 21.4167H6.41675C5.84145 21.4167 5.37508 20.9503 5.37508 20.375C5.37508 19.7997 5.84145 19.3334 6.41675 19.3334H13.7084C14.2837 19.3334 14.7501 18.867 14.7501 18.2917L14.7501 8.30651L9.11028 2.66671H3.29175ZM8.50008 11C7.34949 11 6.41675 11.9328 6.41675 13.0834C6.41675 13.659 6.64879 14.1784 7.02694 14.5565C7.40509 14.9347 7.9245 15.1667 8.50008 15.1667C9.65067 15.1667 10.5834 14.234 10.5834 13.0834C10.5834 11.9328 9.65067 11 8.50008 11ZM4.33342 13.0834C4.33342 10.7822 6.1989 8.91671 8.50008 8.91671C10.8013 8.91671 12.6667 10.7822 12.6667 13.0834C12.6667 15.3846 10.8013 17.25 8.50008 17.25C7.72781 17.25 7.00385 17.0393 6.3836 16.673L1.94498 21.1116C1.53819 21.5184 0.878641 21.5184 0.471845 21.1116C0.065049 20.7048 0.065049 20.0453 0.471845 19.6385L4.91046 15.1999C4.54414 14.5796 4.33342 13.8556 4.33342 13.0834Z" fill="#333E43"/>
</svg>
