<svg width="14" height="13" viewBox="0 0 14 13" fill="none" xmlns="http://www.w3.org/2000/svg">
<path fill-rule="evenodd" clip-rule="evenodd" d="M13.2141 0.286011C13.3926 0.464565 13.455 0.728677 13.3751 0.968234L9.13246 13.6962C9.05113 13.9401 8.83672 14.1156 8.58146 14.147C8.32621 14.1784 8.07564 14.0602 7.93756 13.8433L4.71727 8.78279L-0.343196 5.5625C-0.560171 5.42442 -0.678374 5.17386 -0.64695 4.9186C-0.615527 4.66334 -0.440082 4.44893 -0.196097 4.3676L12.5318 0.12496C12.7714 0.0451077 13.0355 0.107456 13.2141 0.286011ZM6.04972 8.39315L8.31047 11.9458L11.6886 1.81151L1.55431 5.18959L5.10692 7.45034L8.5 4.05725C8.76035 3.7969 9.18246 3.7969 9.44281 4.05725C9.70316 4.3176 9.70316 4.73971 9.44281 5.00006L6.04972 8.39315Z" fill="white"/>
</svg>
